<svg id="visual" viewBox="0 0 900 600" width="900" height="600"
    xmlns="http://www.w3.org/2000/svg"
    xmlns:xlink="http://www.w3.org/1999/xlink" version="1.1">
    <style>
        .path-0 {
            animation:pathAnim-0 4s;
            animation-timing-function: linear;
            animation-iteration-count: infinite;
        }
        @keyframes pathAnim-0{
            0%{
                d: path("M126.3 -150.7C173.9 -139.3 229.6 -116 242.6 -78.3C255.5 -40.6 225.7 11.5 204.5 63.3C183.3 115 170.7 166.3 138.1 193.9C105.4 221.4 52.7 225.2 11.5 209.4C-29.8 193.7 -59.6 158.3 -102.4 134.1C-145.2 109.8 -201 96.6 -209.9 68.4C-218.7 40.2 -180.7 -3.1 -160.8 -48.5C-141 -94 -139.3 -141.7 -115.5 -160.8C-91.7 -179.9 -45.8 -170.4 -3.2 -166C39.4 -161.5 78.8 -162.1 126.3 -150.7");
            }
            25%{
                d: path("M111 -141.2C151.1 -123.7 195.9 -100.9 207.8 -66.9C219.7 -32.9 198.8 12.5 182.5 58.3C166.2 104.1 154.5 150.3 124.9 190.7C95.2 231.1 47.6 265.5 4 260C-39.6 254.5 -79.2 208.9 -103.4 166.8C-127.7 124.7 -136.6 86 -154.5 46.5C-172.5 7 -199.4 -33.3 -189.8 -61.4C-180.3 -89.5 -134.2 -105.4 -96.5 -123.7C-58.8 -141.9 -29.4 -162.5 3 -166.6C35.5 -170.8 70.9 -158.6 111 -141.2");
            }
            50%{
                d: path("M112.8 -174.6C152.1 -126.7 194 -101.7 215.1 -63.5C236.2 -25.4 236.5 25.8 215.7 64C194.9 102.3 153 127.6 113.5 152.4C74.1 177.3 37 201.6 -3.6 206.6C-44.3 211.6 -88.6 197.2 -148 178.9C-207.4 160.5 -282 138.2 -300.8 94.4C-319.6 50.7 -282.5 -14.5 -242.3 -60.4C-202.2 -106.3 -159 -132.8 -118.1 -180.2C-77.2 -227.6 -38.6 -295.8 -0.9 -294.5C36.7 -293.2 73.5 -222.5 112.8 -174.6");
            }
            75%{    
                d: path("M120 -135C160 -120 205 -95 220 -60C235 -25 215 20 200 65C185 110 170 155 135 195C100 235 50 265 5 260C-40 255 -80 215 -105 175C-130 135 -140 95 -160 55C-180 15 -210 -20 -195 -55C-180 -90 -135 -110 -95 -125C-55 -140 -25 -160 5 -165C35 -170 70 -155 120 -135");
            }
            100%{
                d: path("M126.3 -150.7C173.9 -139.3 229.6 -116 242.6 -78.3C255.5 -40.6 225.7 11.5 204.5 63.3C183.3 115 170.7 166.3 138.1 193.9C105.4 221.4 52.7 225.2 11.5 209.4C-29.8 193.7 -59.6 158.3 -102.4 134.1C-145.2 109.8 -201 96.6 -209.9 68.4C-218.7 40.2 -180.7 -3.1 -160.8 -48.5C-141 -94 -139.3 -141.7 -115.5 -160.8C-91.7 -179.9 -45.8 -170.4 -3.2 -166C39.4 -161.5 78.8 -162.1 126.3 -150.7");
            }
        }
    </style>
    <g transform="translate(407.949712299561 288.00031032039544)">
        <path class="transition-all duration-300 ease-in-out delay-150 path-0" d="M94.9 -166.6C131.4 -143.2 175.2 -134.9 209.3 -109.6C243.4 -84.3 267.7 -42.2 259.5 -4.8C251.2 32.7 210.5 65.3 186.7 108.5C163 151.6 156.2 205.3 128 234.1C99.7 263 49.8 267 -0.1 267.1C-50 267.3 -100 263.5 -131.8 236.7C-163.5 209.9 -177 159.9 -177 116.6C-177 73.3 -163.5 36.7 -156.9 3.8C-150.2 -29 -150.5 -58 -146.5 -94.4C-142.5 -130.7 -134.2 -174.5 -109.1 -204.5C-84 -234.5 -42 -250.7 -6.4 -239.6C29.2 -228.5 58.3 -190 94.9 -166.6" fill="#BB945780"></path>
    </g>
</svg>