<svg width="133" height="354" viewBox="0 0 133 354" fill="none" xmlns="http://www.w3.org/2000/svg">
<path d="M59.5531 226.855L47.1674 232.826L45.8102 230.011C45.0184 228.369 44.9114 226.479 45.5129 224.758C46.1143 223.036 47.375 221.624 49.0174 220.833C50.6598 220.041 52.5496 219.934 54.2709 220.535C55.9922 221.137 57.4041 222.397 58.1959 224.04L59.5531 226.855ZM63.4435 257.95C58.9396 260.122 53.5608 254.722 51.3894 250.218C50.3037 247.966 50.344 245.171 49.8414 241.251L49.3388 237.33L61.7245 231.358C62.8102 233.61 65.5647 236.445 68.279 242.075C70.9932 247.705 69.0778 255.234 63.4435 257.95ZM27.6368 253.072L26.789 250.064C26.2942 248.309 26.517 246.429 27.4083 244.838C28.2996 243.247 29.7863 242.075 31.5414 241.581C33.2966 241.086 35.1764 241.309 36.7673 242.2C38.3582 243.091 39.5299 244.578 40.0246 246.333L40.8691 249.34L27.6368 253.072ZM45.3166 278.943C39.2966 280.641 32.8765 276.27 31.1809 270.255C29.4841 264.237 29.6707 260.289 28.9909 257.883L42.2265 254.153L44.447 257.423C46.6675 260.693 48.5475 262.762 49.2262 265.166C50.5836 269.979 50.1296 277.586 45.3166 278.943Z" fill="#432818"/>
<path d="M94.3453 286.731L84.4709 296.3L82.2962 294.056C81.0273 292.746 80.3306 290.986 80.3592 289.163C80.3879 287.34 81.1396 285.603 82.449 284.334C83.7585 283.065 85.5183 282.368 87.3415 282.397C89.1646 282.426 90.9017 283.177 92.1706 284.487L94.3453 286.731ZM107.832 315.019C104.242 318.498 97.4357 315.067 93.9562 311.477C92.2164 309.681 91.3743 307.016 89.6624 303.453L87.9504 299.89L97.8248 290.322C99.5645 292.117 103.072 293.94 107.421 298.428C111.771 302.917 112.324 310.666 107.832 315.019ZM72.3114 321.667L70.5594 319.079C69.537 317.569 69.1563 315.715 69.5011 313.924C69.8459 312.133 70.8879 310.553 72.3979 309.531C73.9079 308.508 75.7622 308.128 77.5528 308.472C79.3435 308.817 80.9238 309.859 81.9462 311.369L83.6947 313.957L72.3114 321.667ZM97.2403 340.652C92.0616 344.16 84.5916 342.034 81.0875 336.859C77.5817 331.682 76.5153 327.876 75.1122 325.807L86.4991 318.097L89.6366 320.502C92.7741 322.906 95.21 324.277 96.6113 326.345C99.4157 330.485 101.381 337.848 97.2403 340.652Z" fill="#432818"/>
<path d="M52.8552 162.739L39.1097 163.09L39.0298 159.966C38.9832 158.143 39.6627 156.377 40.9186 155.055C42.1746 153.733 43.9042 152.964 45.7269 152.918C47.5497 152.871 49.3163 153.551 50.6381 154.807C51.96 156.063 52.7287 157.792 52.7753 159.615L52.8552 162.739ZM43.6172 192.685C38.6189 192.812 35.9357 185.679 35.808 180.68C35.7441 178.181 36.9298 175.65 38.0836 171.869L39.2374 168.089L52.9829 167.737C53.0468 170.236 54.3922 173.953 54.5519 180.201C54.7115 186.449 49.8702 192.525 43.6172 192.685ZM12.9825 173.516L13.4462 170.426C13.7168 168.622 14.6927 167 16.1592 165.917C17.6258 164.833 19.4628 164.376 21.2661 164.647C23.0695 164.917 24.6914 165.893 25.7752 167.36C26.859 168.826 27.3159 170.663 27.0453 172.466L26.579 175.554L12.9825 173.516ZM18.4625 204.369C12.2768 203.441 8.22128 196.818 9.14867 190.637C10.076 184.454 11.8691 180.932 12.2385 178.459L25.8376 180.5L26.5173 184.394C27.197 188.288 28.0603 190.947 27.6907 193.417C26.9494 198.362 23.4081 205.11 18.4625 204.369Z" fill="#432818"/>
<path d="M52.367 89.2506L38.6214 89.6019L38.5416 86.4779C38.495 84.6552 39.1744 82.8886 40.4304 81.5667C41.6863 80.2449 43.4159 79.4761 45.2387 79.4295C47.0615 79.383 48.8281 80.0624 50.1499 81.3183C51.4718 82.5743 52.2405 84.3039 52.2871 86.1267L52.367 89.2506ZM43.129 119.196C38.1306 119.324 35.4475 112.19 35.3198 107.192C35.2559 104.693 36.4416 102.162 37.5954 98.381L38.7492 94.6003L52.4947 94.249C52.5586 96.7482 53.904 100.465 54.0636 106.713C54.2233 112.961 49.382 119.037 43.129 119.196ZM12.4943 100.028L12.958 96.9375C13.2286 95.1341 14.2045 93.5122 15.671 92.4283C17.1375 91.3445 18.9745 90.8877 20.7779 91.1583C22.5812 91.4289 24.2032 92.4048 25.287 93.8714C26.3708 95.3379 26.8277 97.1749 26.5571 98.9782L26.0908 102.066L12.4943 100.028ZM17.9743 130.88C11.7886 129.953 7.73306 123.33 8.66045 117.149C9.58778 110.966 11.3809 107.444 11.7503 104.971L25.3494 107.012L26.0291 110.906C26.7088 114.8 27.572 117.458 27.2025 119.929C26.4611 124.874 22.9199 131.622 17.9743 130.88Z" fill="#432818"/>
<path d="M50.367 15.2506L36.6214 15.6019L36.5416 12.4779C36.495 10.6552 37.1744 8.88856 38.4304 7.56673C39.6863 6.2449 41.4159 5.47613 43.2387 5.42954C45.0615 5.38296 46.8281 6.06238 48.1499 7.31833C49.4718 8.57428 50.2405 10.3039 50.2871 12.1267L50.367 15.2506ZM41.129 45.1964C36.1306 45.3242 33.4475 38.1904 33.3198 33.192C33.2559 30.6928 34.4416 28.1617 35.5954 24.381L36.7492 20.6003L50.4947 20.249C50.5586 22.7482 51.904 26.465 52.0636 32.713C52.2233 38.9609 47.382 45.0366 41.129 45.1964ZM10.4943 26.0278L10.958 22.9375C11.2286 21.1341 12.2045 19.5122 13.671 18.4283C15.1375 17.3445 16.9745 16.8877 18.7779 17.1583C20.5812 17.4289 22.2032 18.4048 23.287 19.8714C24.3708 21.3379 24.8277 23.1749 24.5571 24.9782L24.0908 28.0661L10.4943 26.0278ZM15.9743 56.8804C9.78861 55.9531 5.73306 49.3296 6.66045 43.1489C7.58778 36.9657 9.38088 33.4437 9.75033 30.971L23.3494 33.0117L24.0291 36.9056C24.7088 40.7995 25.572 43.4583 25.2025 45.9286C24.4611 50.8741 20.9199 57.6218 15.9743 56.8804Z" fill="#432818"/>
</svg>
