<svg width="148" height="343" viewBox="0 0 148 343" fill="none" xmlns="http://www.w3.org/2000/svg">
<path d="M17.8275 51.636L23.6694 39.1887L20.8404 37.861C19.1898 37.0864 17.2991 36.9991 15.5841 37.6185C13.8692 38.2379 12.4705 39.5131 11.6958 41.1638C10.9212 42.8144 10.8339 44.7051 11.4533 46.4201C12.0727 48.135 13.3479 49.5337 14.9985 50.3083L17.8275 51.636ZM48.9623 55.2019C51.0866 50.6756 45.6309 45.3535 41.1046 43.2291C38.8414 42.167 36.0472 42.2364 32.1214 41.7747L28.1956 41.3131L22.3538 53.7603C24.6169 54.8225 27.4805 57.5473 33.1384 60.2027C38.7963 62.8581 46.3047 60.8643 48.9623 55.2019ZM43.7102 19.4481L40.6937 18.6317C38.9335 18.1553 37.0562 18.3976 35.4746 19.3054C33.8931 20.2133 32.737 21.7121 32.2606 23.4724C31.7842 25.2326 32.0266 27.1099 32.9344 28.6914C33.8422 30.273 35.3411 31.4291 37.1013 31.9055L40.1165 32.7186L43.7102 19.4481ZM69.7647 36.8571C71.3996 30.8197 66.9624 24.4456 60.9295 22.8127C54.8944 21.1788 50.9489 21.4066 48.5359 20.7519L44.9435 34.0257L48.2366 36.212C51.5298 38.3982 53.6181 40.2565 56.0288 40.9102C60.8558 42.2173 68.4575 41.684 69.7647 36.8571Z" fill="#432818"/>
<path d="M74.5114 84.8683L84.6386 75.5677L82.5248 73.266C81.2915 71.9231 79.5751 71.1251 77.7534 71.0475C75.9317 70.97 74.1538 71.6194 72.8109 72.8527C71.4679 74.0861 70.6699 75.8024 70.5924 77.6241C70.5149 79.4458 71.1642 81.2237 72.3976 82.5667L74.5114 84.8683ZM101.966 99.979C105.649 96.597 102.62 89.6029 99.2377 85.9203C97.5467 84.079 94.935 83.0832 91.4778 81.1667L88.0206 79.2503L77.8934 88.5509C79.5844 90.3922 81.2003 93.9997 85.4279 98.603C89.6554 103.206 97.359 104.21 101.966 99.979ZM110.67 64.9054L108.189 63.0057C106.741 61.8972 104.912 61.4092 103.104 61.6492C101.297 61.8892 99.6584 62.8374 98.5499 64.2853C97.4413 65.7332 96.9534 67.5622 97.1934 69.3699C97.4333 71.1776 98.3816 72.8159 99.8295 73.9244L102.311 75.8206L110.67 64.9054ZM128.173 90.8972C131.976 85.9313 130.288 78.3504 125.326 74.5509C120.362 70.7497 116.625 69.4636 114.641 67.9425L106.281 78.8612L108.499 82.1333C110.716 85.4055 111.944 87.9171 113.926 89.4364C117.896 92.477 125.132 94.8674 128.173 90.8972Z" fill="#432818"/>
<path d="M137.216 137.146L123.468 137.349L123.421 134.224C123.395 132.401 124.093 130.642 125.363 129.334C126.633 128.025 128.371 127.275 130.194 127.248C132.017 127.222 133.776 127.92 135.085 129.19C136.393 130.46 137.143 132.198 137.17 134.021L137.216 137.146ZM127.656 166.99C122.657 167.064 120.05 159.902 119.977 154.902C119.94 152.403 121.153 149.885 122.347 146.116L123.542 142.348L137.29 142.145C137.327 144.645 138.632 148.376 138.725 154.625C138.817 160.875 133.91 166.898 127.656 166.99ZM97.2296 147.493L97.7266 144.408C98.0167 142.607 99.01 140.996 100.488 139.928C101.966 138.86 103.808 138.423 105.608 138.713C107.409 139.003 109.02 139.996 110.088 141.474C111.156 142.953 111.593 144.794 111.303 146.595L110.803 149.677L97.2296 147.493ZM102.377 178.403C96.2016 177.409 92.2176 170.742 93.2116 164.571C94.2055 158.399 96.0364 154.896 96.4325 152.428L110.009 154.615L110.646 158.516C111.284 162.417 112.119 165.085 111.723 167.551C110.928 172.488 107.314 179.197 102.377 178.403Z" fill="#432818"/>
<path d="M137.216 217.146L123.468 217.349L123.421 214.224C123.395 212.401 124.093 210.642 125.363 209.334C126.633 208.025 128.371 207.275 130.194 207.248C132.017 207.222 133.776 207.92 135.085 209.19C136.393 210.46 137.143 212.198 137.17 214.021L137.216 217.146ZM127.656 246.99C122.657 247.064 120.05 239.902 119.977 234.902C119.94 232.403 121.153 229.885 122.347 226.116L123.542 222.348L137.29 222.145C137.327 224.645 138.632 228.376 138.725 234.625C138.817 240.875 133.91 246.898 127.656 246.99ZM97.2296 227.493L97.7266 224.408C98.0167 222.607 99.01 220.996 100.488 219.928C101.966 218.86 103.808 218.423 105.608 218.713C107.409 219.003 109.02 219.996 110.088 221.474C111.156 222.953 111.593 224.794 111.303 226.595L110.803 229.677L97.2296 227.493ZM102.377 258.403C96.2016 257.409 92.2176 250.742 93.2116 244.571C94.2055 238.399 96.0364 234.896 96.4325 232.428L110.009 234.615L110.646 238.516C111.284 242.417 112.119 245.085 111.723 247.551C110.928 252.488 107.314 259.197 102.377 258.403Z" fill="#432818"/>
<path d="M137.216 297.146L123.468 297.349L123.421 294.224C123.395 292.401 124.093 290.642 125.363 289.334C126.633 288.025 128.371 287.275 130.194 287.248C132.017 287.222 133.776 287.92 135.085 289.19C136.393 290.46 137.143 292.198 137.17 294.021L137.216 297.146ZM127.656 326.99C122.657 327.064 120.05 319.902 119.977 314.902C119.94 312.403 121.153 309.885 122.347 306.116L123.542 302.348L137.29 302.145C137.327 304.645 138.632 308.376 138.725 314.625C138.817 320.875 133.91 326.898 127.656 326.99ZM97.2296 307.493L97.7266 304.408C98.0167 302.607 99.01 300.996 100.488 299.928C101.966 298.86 103.808 298.423 105.608 298.713C107.409 299.003 109.02 299.996 110.088 301.474C111.156 302.953 111.593 304.794 111.303 306.595L110.803 309.677L97.2296 307.493ZM102.377 338.403C96.2016 337.409 92.2176 330.742 93.2116 324.571C94.2055 318.399 96.0364 314.896 96.4325 312.428L110.009 314.615L110.646 318.516C111.284 322.417 112.119 325.085 111.723 327.551C110.928 332.488 107.314 339.197 102.377 338.403Z" fill="#432818"/>
</svg>
